<?xml version="1.0" standalone="no"?>
<!DOCTYPE svg PUBLIC "-//W3C//DTD SVG 20010904//EN"
 "http://www.w3.org/TR/2001/REC-SVG-20010904/DTD/svg10.dtd">
<svg version="1.0" xmlns="http://www.w3.org/2000/svg"
 width="500.000000pt" height="500.000000pt" viewBox="0 0 500.000000 500.000000"
 preserveAspectRatio="xMidYMid meet">
<metadata>
Created by potrace 1.14, written by Peter Selinger 2001-2017
</metadata>
<g transform="translate(0.000000,500.000000) scale(0.100000,-0.100000)"
fill="#000000" stroke="none">
<path d="M0 2500 l0 -2500 2500 0 2500 0 0 2500 0 2500 -2500 0 -2500 0 0
-2500z m1961 1420 c50 -28 49 2 49 -1017 0 -784 -3 -964 -15 -1038 -56 -344
-296 -632 -620 -743 -127 -43 -217 -55 -384 -49 -180 5 -263 23 -397 86 -209
98 -384 278 -470 483 -28 65 -34 93 -34 149 0 60 3 73 24 94 45 45 160 47 201
3 11 -13 32 -50 45 -83 41 -104 90 -177 175 -261 69 -69 98 -90 186 -133 158
-77 278 -96 424 -66 272 56 477 239 572 510 l28 80 5 965 c5 1009 5 994 48
1019 22 14 138 14 163 1z m957 -16 c30 -20 19 -5 908 -1239 l749 -1040 5 1114
5 1113 28 24 c24 20 39 24 98 24 65 0 73 -2 100 -29 l29 -29 0 -1357 0 -1357
-29 -29 c-27 -27 -35 -29 -102 -29 l-72 0 -41 43 c-23 24 -396 538 -831 1143
l-790 1100 -5 -1111 c-5 -1170 -4 -1140 -50 -1165 -24 -13 -136 -13 -161 0
-51 28 -49 -36 -49 1425 l0 1357 29 29 c26 26 36 29 93 29 42 0 71 -5 86 -16z"/>
</g>
</svg>
